<svg width="28" height="28" viewBox="0 0 28 28" fill="none" xmlns="http://www.w3.org/2000/svg">
<path d="M27.5 13.75C27.5 14.1876 27.3262 14.6073 27.0167 14.9167C26.7073 15.2262 26.2876 15.4 25.85 15.4H15.4V25.85C15.4 26.2876 15.2262 26.7073 14.9167 27.0167C14.6073 27.3262 14.1876 27.5 13.75 27.5C13.3124 27.5 12.8927 27.3262 12.5833 27.0167C12.2738 26.7073 12.1 26.2876 12.1 25.85V15.4H1.65C1.21239 15.4 0.792709 15.2262 0.483274 14.9167C0.173839 14.6073 0 14.1876 0 13.75C0 13.3124 0.173839 12.8927 0.483274 12.5833C0.792709 12.2738 1.21239 12.1 1.65 12.1H12.1V1.65C12.1 1.21239 12.2738 0.792709 12.5833 0.483274C12.8927 0.173839 13.3124 0 13.75 0C14.1876 0 14.6073 0.173839 14.9167 0.483274C15.2262 0.792709 15.4 1.21239 15.4 1.65V12.1H25.85C26.2876 12.1 26.7073 12.2738 27.0167 12.5833C27.3262 12.8927 27.5 13.3124 27.5 13.75Z" fill="#333333"/>
</svg>
