<svg width="28" height="28" viewBox="0 0 28 28" fill="none" xmlns="http://www.w3.org/2000/svg">
<path d="M12.125 6.875V7.25H15.875V6.875C15.875 6.37772 15.6775 5.90081 15.3258 5.54917C14.9742 5.19754 14.4973 5 14 5C13.5027 5 13.0258 5.19754 12.6742 5.54917C12.3225 5.90081 12.125 6.37772 12.125 6.875ZM10.625 7.25V6.875C10.625 5.97989 10.9806 5.12145 11.6135 4.48851C12.2465 3.85558 13.1049 3.5 14 3.5C14.8951 3.5 15.7535 3.85558 16.3865 4.48851C17.0194 5.12145 17.375 5.97989 17.375 6.875V7.25H23C23.1989 7.25 23.3897 7.32902 23.5303 7.46967C23.671 7.61032 23.75 7.80109 23.75 8C23.75 8.19891 23.671 8.38968 23.5303 8.53033C23.3897 8.67098 23.1989 8.75 23 8.75H21.869L20.45 21.176C20.3454 22.0911 19.9076 22.9358 19.2201 23.5488C18.5326 24.1618 17.6436 24.5004 16.7225 24.5H11.2775C10.3564 24.5004 9.46735 24.1618 8.77989 23.5488C8.09243 22.9358 7.65464 22.0911 7.55 21.176L6.131 8.75H5C4.80109 8.75 4.61032 8.67098 4.46967 8.53033C4.32902 8.38968 4.25 8.19891 4.25 8C4.25 7.80109 4.32902 7.61032 4.46967 7.46967C4.61032 7.32902 4.80109 7.25 5 7.25H10.625ZM9.041 21.005C9.10362 21.5539 9.36602 22.0606 9.77819 22.4286C10.1904 22.7965 10.7235 22.9999 11.276 23H16.7233C17.2757 22.9999 17.8089 22.7965 18.2211 22.4286C18.6332 22.0606 18.8956 21.5539 18.9583 21.005L20.36 8.75H7.64075L9.041 21.005ZM11.75 11.375C11.9489 11.375 12.1397 11.454 12.2803 11.5947C12.421 11.7353 12.5 11.9261 12.5 12.125V19.625C12.5 19.8239 12.421 20.0147 12.2803 20.1553C12.1397 20.296 11.9489 20.375 11.75 20.375C11.5511 20.375 11.3603 20.296 11.2197 20.1553C11.079 20.0147 11 19.8239 11 19.625V12.125C11 11.9261 11.079 11.7353 11.2197 11.5947C11.3603 11.454 11.5511 11.375 11.75 11.375V11.375ZM17 12.125C17 11.9261 16.921 11.7353 16.7803 11.5947C16.6397 11.454 16.4489 11.375 16.25 11.375C16.0511 11.375 15.8603 11.454 15.7197 11.5947C15.579 11.7353 15.5 11.9261 15.5 12.125V19.625C15.5 19.8239 15.579 20.0147 15.7197 20.1553C15.8603 20.296 16.0511 20.375 16.25 20.375C16.4489 20.375 16.6397 20.296 16.7803 20.1553C16.921 20.0147 17 19.8239 17 19.625V12.125Z" fill="#BEBDBD"/>
</svg>
