<svg width="28" height="28" viewBox="0 0 28 28" fill="none" xmlns="http://www.w3.org/2000/svg">
<path d="M5.83333 22.1667H7.46667L17.5292 12.1042L15.8958 10.4708L5.83333 20.5333V22.1667ZM22.5167 10.4125L17.5583 5.51251L19.1917 3.87918C19.6389 3.43195 20.1884 3.20834 20.8402 3.20834C21.4912 3.20834 22.0403 3.43195 22.4875 3.87918L24.1208 5.51251C24.5681 5.95973 24.8014 6.49951 24.8208 7.13184C24.8403 7.7634 24.6264 8.30279 24.1792 8.75001L22.5167 10.4125ZM4.66667 24.5C4.33611 24.5 4.05922 24.388 3.836 24.164C3.612 23.9408 3.5 23.6639 3.5 23.3333V20.0375C3.5 19.882 3.52917 19.7315 3.5875 19.586C3.64583 19.4398 3.73333 19.3083 3.85 19.1917L15.8667 7.17501L20.825 12.1333L8.80833 24.15C8.69167 24.2667 8.56061 24.3542 8.41517 24.4125C8.26894 24.4708 8.11806 24.5 7.9625 24.5H4.66667ZM16.7125 11.2875L15.8958 10.4708L17.5292 12.1042L16.7125 11.2875Z" fill="#BEBDBD"/>
</svg>
