<svg width="110" height="26" viewBox="0 0 110 26" fill="none" xmlns="http://www.w3.org/2000/svg">
<path d="M4.642 6.876V17.964C4.642 18.5067 4.796 18.91 5.104 19.174C5.412 19.438 5.808 19.57 6.292 19.57C6.71733 19.57 7.084 19.4967 7.392 19.35C7.7 19.2033 7.97867 19.0053 8.228 18.756L8.844 20.23C8.50667 20.538 8.10333 20.78 7.634 20.956C7.17933 21.132 6.65133 21.22 6.05 21.22C5.49267 21.22 4.972 21.1247 4.488 20.934C4.004 20.7287 3.61533 20.4133 3.322 19.988C3.04333 19.548 2.89667 18.976 2.882 18.272V7.36L4.642 6.876ZM8.646 10V11.518H0.682V10H8.646ZM15.8168 9.78C16.8581 9.78 17.7748 10.0073 18.5668 10.462C19.3735 10.9167 20.0041 11.5767 20.4588 12.442C20.9135 13.2927 21.1408 14.312 21.1408 15.5C21.1408 16.688 20.9135 17.7147 20.4588 18.58C20.0041 19.4307 19.3735 20.0833 18.5668 20.538C17.7748 20.9927 16.8581 21.22 15.8168 21.22C14.7901 21.22 13.8735 20.9927 13.0668 20.538C12.2601 20.0833 11.6295 19.4307 11.1748 18.58C10.7201 17.7147 10.4928 16.688 10.4928 15.5C10.4928 14.312 10.7201 13.2927 11.1748 12.442C11.6295 11.5767 12.2601 10.9167 13.0668 10.462C13.8735 10.0073 14.7901 9.78 15.8168 9.78ZM15.8168 11.298C15.0688 11.298 14.4308 11.4667 13.9028 11.804C13.3748 12.1413 12.9641 12.6253 12.6708 13.256C12.3921 13.872 12.2528 14.62 12.2528 15.5C12.2528 16.3653 12.3921 17.1133 12.6708 17.744C12.9641 18.3747 13.3748 18.8587 13.9028 19.196C14.4308 19.5333 15.0688 19.702 15.8168 19.702C16.5648 19.702 17.2028 19.5333 17.7308 19.196C18.2588 18.8587 18.6621 18.3747 18.9408 17.744C19.2341 17.1133 19.3808 16.3653 19.3808 15.5C19.3808 14.62 19.2341 13.872 18.9408 13.256C18.6621 12.6253 18.2588 12.1413 17.7308 11.804C17.2028 11.4667 16.5648 11.298 15.8168 11.298ZM28.7442 21.22C27.8349 21.22 26.9989 20.9927 26.2362 20.538C25.4735 20.0833 24.8649 19.4307 24.4102 18.58C23.9555 17.7147 23.7282 16.688 23.7282 15.5C23.7282 14.2827 23.9702 13.2487 24.4542 12.398C24.9382 11.5473 25.5762 10.902 26.3682 10.462C27.1602 10.0073 28.0109 9.78 28.9202 9.78C29.8295 9.78 30.6142 10.0147 31.2742 10.484C31.9489 10.9533 32.3962 11.5767 32.6162 12.354L32.3962 12.508V4.94H34.1562V21H32.6162L32.4622 18.338L32.7042 18.206C32.6015 18.8513 32.3522 19.4013 31.9562 19.856C31.5749 20.296 31.0982 20.6333 30.5262 20.868C29.9689 21.1027 29.3749 21.22 28.7442 21.22ZM28.9202 19.68C29.6242 19.68 30.2329 19.504 30.7462 19.152C31.2742 18.8 31.6775 18.3013 31.9562 17.656C32.2495 16.996 32.3962 16.226 32.3962 15.346C32.3962 14.51 32.2495 13.7913 31.9562 13.19C31.6775 12.5887 31.2815 12.1267 30.7682 11.804C30.2695 11.4813 29.6829 11.32 29.0082 11.32C27.8935 11.32 27.0282 11.7013 26.4122 12.464C25.7962 13.2267 25.4882 14.2387 25.4882 15.5C25.4882 16.7613 25.7889 17.7733 26.3902 18.536C26.9915 19.2987 27.8349 19.68 28.9202 19.68ZM42.8012 9.78C43.8425 9.78 44.7592 10.0073 45.5512 10.462C46.3578 10.9167 46.9885 11.5767 47.4432 12.442C47.8978 13.2927 48.1252 14.312 48.1252 15.5C48.1252 16.688 47.8978 17.7147 47.4432 18.58C46.9885 19.4307 46.3578 20.0833 45.5512 20.538C44.7592 20.9927 43.8425 21.22 42.8012 21.22C41.7745 21.22 40.8578 20.9927 40.0512 20.538C39.2445 20.0833 38.6138 19.4307 38.1592 18.58C37.7045 17.7147 37.4772 16.688 37.4772 15.5C37.4772 14.312 37.7045 13.2927 38.1592 12.442C38.6138 11.5767 39.2445 10.9167 40.0512 10.462C40.8578 10.0073 41.7745 9.78 42.8012 9.78ZM42.8012 11.298C42.0532 11.298 41.4152 11.4667 40.8872 11.804C40.3592 12.1413 39.9485 12.6253 39.6552 13.256C39.3765 13.872 39.2372 14.62 39.2372 15.5C39.2372 16.3653 39.3765 17.1133 39.6552 17.744C39.9485 18.3747 40.3592 18.8587 40.8872 19.196C41.4152 19.5333 42.0532 19.702 42.8012 19.702C43.5492 19.702 44.1872 19.5333 44.7152 19.196C45.2432 18.8587 45.6465 18.3747 45.9252 17.744C46.2185 17.1133 46.3652 16.3653 46.3652 15.5C46.3652 14.62 46.2185 13.872 45.9252 13.256C45.6465 12.6253 45.2432 12.1413 44.7152 11.804C44.1872 11.4667 43.5492 11.298 42.8012 11.298ZM53.1106 4.94V18.206C53.1106 18.7633 53.2132 19.152 53.4186 19.372C53.6239 19.5773 53.9539 19.68 54.4086 19.68C54.7019 19.68 54.9439 19.658 55.1346 19.614C55.3252 19.57 55.5819 19.4893 55.9046 19.372L55.6186 20.912C55.3839 21.0147 55.1272 21.088 54.8486 21.132C54.5699 21.1907 54.2839 21.22 53.9906 21.22C53.0959 21.22 52.4286 20.978 51.9886 20.494C51.5632 20.01 51.3506 19.2693 51.3506 18.272V4.94H53.1106ZM59.0432 7.888C58.6472 7.888 58.3245 7.77067 58.0752 7.536C57.8405 7.28667 57.7232 6.964 57.7232 6.568C57.7232 6.172 57.8405 5.85667 58.0752 5.622C58.3245 5.37267 58.6472 5.248 59.0432 5.248C59.4392 5.248 59.7545 5.37267 59.9892 5.622C60.2385 5.85667 60.3632 6.172 60.3632 6.568C60.3632 6.964 60.2385 7.28667 59.9892 7.536C59.7545 7.77067 59.4392 7.888 59.0432 7.888ZM59.9232 10V21H58.1632V10H59.9232ZM67.9669 21.22C66.8963 21.22 65.9063 20.9927 64.9969 20.538C64.1023 20.0833 63.4129 19.438 62.9289 18.602L64.4249 17.524C64.7476 18.1987 65.2169 18.7267 65.8329 19.108C66.4636 19.4893 67.2189 19.68 68.0989 19.68C68.8763 19.68 69.4849 19.5333 69.9249 19.24C70.3649 18.932 70.5849 18.536 70.5849 18.052C70.5849 17.744 70.4823 17.4653 70.2769 17.216C70.0863 16.952 69.7123 16.7613 69.1549 16.644L66.5149 16.094C65.4443 15.874 64.6743 15.5073 64.2049 14.994C63.7503 14.4807 63.5229 13.8427 63.5229 13.08C63.5229 12.4787 63.6916 11.9287 64.0289 11.43C64.3809 10.9313 64.8723 10.5353 65.5029 10.242C66.1483 9.934 66.9036 9.78 67.7689 9.78C68.8543 9.78 69.7709 9.99267 70.5189 10.418C71.2669 10.8433 71.8243 11.4447 72.1909 12.222L70.7169 13.19C70.4676 12.5447 70.0643 12.0753 69.5069 11.782C68.9496 11.474 68.3703 11.32 67.7689 11.32C67.2409 11.32 66.7863 11.3933 66.4049 11.54C66.0383 11.6867 65.7523 11.892 65.5469 12.156C65.3563 12.4053 65.2609 12.6913 65.2609 13.014C65.2609 13.3367 65.3709 13.6373 65.5909 13.916C65.8109 14.18 66.2216 14.3707 66.8229 14.488L69.5729 15.06C70.5996 15.2653 71.3183 15.6027 71.7289 16.072C72.1396 16.5413 72.3449 17.1133 72.3449 17.788C72.3449 18.4773 72.1616 19.086 71.7949 19.614C71.4283 20.1273 70.9149 20.5233 70.2549 20.802C69.5949 21.0807 68.8323 21.22 67.9669 21.22ZM78.2045 6.876V17.964C78.2045 18.5067 78.3585 18.91 78.6665 19.174C78.9745 19.438 79.3705 19.57 79.8545 19.57C80.2798 19.57 80.6465 19.4967 80.9545 19.35C81.2625 19.2033 81.5412 19.0053 81.7905 18.756L82.4065 20.23C82.0692 20.538 81.6658 20.78 81.1965 20.956C80.7418 21.132 80.2138 21.22 79.6125 21.22C79.0552 21.22 78.5345 21.1247 78.0505 20.934C77.5665 20.7287 77.1778 20.4133 76.8845 19.988C76.6058 19.548 76.4592 18.976 76.4445 18.272V7.36L78.2045 6.876ZM82.2085 10V11.518H74.2445V10H82.2085Z" fill="black"/>
<path d="M91 23C90.45 23 89.979 22.8043 89.587 22.413C89.1957 22.021 89 21.55 89 21V7C89 6.45 89.1957 5.979 89.587 5.587C89.979 5.19567 90.45 5 91 5H105C105.55 5 106.021 5.19567 106.413 5.587C106.804 5.979 107 6.45 107 7V21C107 21.55 106.804 22.021 106.413 22.413C106.021 22.8043 105.55 23 105 23H91ZM91 21H105V7H91V21ZM94 19C94.2833 19 94.521 18.904 94.713 18.712C94.9043 18.5207 95 18.2833 95 18C95 17.7167 94.9043 17.479 94.713 17.287C94.521 17.0957 94.2833 17 94 17C93.7167 17 93.479 17.0957 93.287 17.287C93.0957 17.479 93 17.7167 93 18C93 18.2833 93.0957 18.5207 93.287 18.712C93.479 18.904 93.7167 19 94 19ZM94 15C94.2833 15 94.521 14.904 94.713 14.712C94.9043 14.5207 95 14.2833 95 14C95 13.7167 94.9043 13.479 94.713 13.287C94.521 13.0957 94.2833 13 94 13C93.7167 13 93.479 13.0957 93.287 13.287C93.0957 13.479 93 13.7167 93 14C93 14.2833 93.0957 14.5207 93.287 14.712C93.479 14.904 93.7167 15 94 15ZM94 11C94.2833 11 94.521 10.904 94.713 10.712C94.9043 10.5207 95 10.2833 95 10C95 9.71667 94.9043 9.479 94.713 9.287C94.521 9.09567 94.2833 9 94 9C93.7167 9 93.479 9.09567 93.287 9.287C93.0957 9.479 93 9.71667 93 10C93 10.2833 93.0957 10.5207 93.287 10.712C93.479 10.904 93.7167 11 94 11ZM98 19H102C102.283 19 102.521 18.904 102.712 18.712C102.904 18.5207 103 18.2833 103 18C103 17.7167 102.904 17.479 102.712 17.287C102.521 17.0957 102.283 17 102 17H98C97.7167 17 97.4793 17.0957 97.288 17.287C97.096 17.479 97 17.7167 97 18C97 18.2833 97.096 18.5207 97.288 18.712C97.4793 18.904 97.7167 19 98 19ZM98 15H102C102.283 15 102.521 14.904 102.712 14.712C102.904 14.5207 103 14.2833 103 14C103 13.7167 102.904 13.479 102.712 13.287C102.521 13.0957 102.283 13 102 13H98C97.7167 13 97.4793 13.0957 97.288 13.287C97.096 13.479 97 13.7167 97 14C97 14.2833 97.096 14.5207 97.288 14.712C97.4793 14.904 97.7167 15 98 15ZM98 11H102C102.283 11 102.521 10.904 102.712 10.712C102.904 10.5207 103 10.2833 103 10C103 9.71667 102.904 9.479 102.712 9.287C102.521 9.09567 102.283 9 102 9H98C97.7167 9 97.4793 9.09567 97.288 9.287C97.096 9.479 97 9.71667 97 10C97 10.2833 97.096 10.5207 97.288 10.712C97.4793 10.904 97.7167 11 98 11ZM91 21V7V21Z" fill="#333333"/>
</svg>
